HIERARCHY
ROOT joint_Root
{
	OFFSET 0.0 0.0 0.0
	CHANNELS 6 Xposition Yposition Zposition Zrotation Xrotation Yrotation 
	JOINT Hips
	{
		OFFSET -17.1583 93.1646 452.98
		CHANNELS 6 Xposition Yposition Zposition Zrotation Xrotation Yrotation 
		JOINT Spine
		{
			OFFSET 15.7357 0.0 0.0
			CHANNELS 6 Xposition Yposition Zposition Zrotation Xrotation Yrotation 
			JOINT Chest
			{
				OFFSET 8.98455 -0.406207 0.0
				CHANNELS 6 Xposition Yposition Zposition Zrotation Xrotation Yrotation 
				JOINT Neck
				{
					OFFSET 16.3773 0.0 0.0
					CHANNELS 6 Xposition Yposition Zposition Zrotation Xrotation Yrotation 
					JOINT Head
					{
						OFFSET 6.45672 0.0 0.0
						CHANNELS 6 Xposition Yposition Zposition Zrotation Xrotation Yrotation 
						End Site
						{
							OFFSET 0.0 0.0 0.0
						}
					}
				}
				JOINT Shoulder_L
				{
					OFFSET 12.9942 -0.242716 4.98039
					CHANNELS 6 Xposition Yposition Zposition Zrotation Xrotation Yrotation 
					JOINT UpperArm_L
					{
						OFFSET 5.34809 0.0 0.0
						CHANNELS 6 Xposition Yposition Zposition Zrotation Xrotation Yrotation 
						JOINT LowerArm_L
						{
							OFFSET 24.3286 1.87007e-05 0.0
							CHANNELS 6 Xposition Yposition Zposition Zrotation Xrotation Yrotation 
							JOINT Hand_L
							{
								OFFSET 22.2916 0.0 0.0
								CHANNELS 6 Xposition Yposition Zposition Zrotation Xrotation Yrotation 
								End Site
								{
									OFFSET 0.0 0.0 0.0
								}
							}
						}
					}
				}
				JOINT Shoulder_R
				{
					OFFSET 12.9945 -0.242716 -4.98039
					CHANNELS 6 Xposition Yposition Zposition Zrotation Xrotation Yrotation 
					JOINT UpperArm_R
					{
						OFFSET -5.34813 0.0 0.0
						CHANNELS 6 Xposition Yposition Zposition Zrotation Xrotation Yrotation 
						JOINT LowerArm_R
						{
							OFFSET -24.3289 0.000322201 0.0
							CHANNELS 6 Xposition Yposition Zposition Zrotation Xrotation Yrotation 
							JOINT Hand_R
							{
								OFFSET -22.2915 -0.000108084 0.0
								CHANNELS 6 Xposition Yposition Zposition Zrotation Xrotation Yrotation 
								End Site
								{
									OFFSET 0.0 0.0 0.0
								}
							}
						}
					}
				}
			}
		}
		JOINT UpperLeg_L
		{
			OFFSET -2.19248 -6.46944 0.0
			CHANNELS 6 Xposition Yposition Zposition Zrotation Xrotation Yrotation 
			JOINT LowerLeg_L
			{
				OFFSET 39.0811 0.0 -1.23785e-05
				CHANNELS 6 Xposition Yposition Zposition Zrotation Xrotation Yrotation 
				JOINT Foot_L
				{
					OFFSET 40.9854 0.0 -1.26872e-05
					CHANNELS 6 Xposition Yposition Zposition Zrotation Xrotation Yrotation 
					JOINT Toes_L
					{
						OFFSET 11.7543 0.0 0.0
						CHANNELS 6 Xposition Yposition Zposition Zrotation Xrotation Yrotation 
						End Site
						{
							OFFSET 0.0 0.0 0.0
						}
					}
				}
			}
		}
		JOINT UpperLeg_R
		{
			OFFSET -2.19251 6.46944 0.0
			CHANNELS 6 Xposition Yposition Zposition Zrotation Xrotation Yrotation 
			JOINT LowerLeg_R
			{
				OFFSET -39.0811 -0.00228153 -0.0401928
				CHANNELS 6 Xposition Yposition Zposition Zrotation Xrotation Yrotation 
				JOINT Foot_R
				{
					OFFSET -40.9854 0.0 0.0
					CHANNELS 6 Xposition Yposition Zposition Zrotation Xrotation Yrotation 
					JOINT Toes_R
					{
						OFFSET -11.7543 0.0 0.0
						CHANNELS 6 Xposition Yposition Zposition Zrotation Xrotation Yrotation 
						End Site
						{
							OFFSET 0.0 0.0 0.0
						}
					}
				}
			}
		}
	}
}
MOTION
Frames:	4
Frame Time:	0.0333333
0.000000 0.000000 0.000000 0.000000 0.000000 -0.000000 -0.855268 92.645400 39.281400 -92.101500 5.060300 163.244000 15.735700 0.000005 -0.000001 124.125000 85.184500 -124.235000 8.984550 -0.406207 -0.000000 0.215380 5.408710 -0.230905 16.377300 -0.000001 -0.000001 -8.827490 1.311520 -1.414200 6.456720 -0.000001 -0.000000 -0.702132 -1.415590 -4.198500 12.994200 -0.242716 4.980390 -91.310100 3.757840 -70.762600 5.348090 -0.000007 -0.000001 -52.043800 -12.788400 16.236900 24.328600 0.000019 0.000005 0.774321 44.154300 -1.110460 22.291600 -0.000001 0.000005 1.869570 3.766070 27.404300 12.994500 -0.242716 -4.980390 89.890900 0.508796 -77.908200 -5.348130 -0.000001 -0.000004 -63.985100 6.430400 -7.691980 -24.328900 0.000322 -0.000009 -5.201280 -2.187690 -67.229700 -22.291500 -0.000108 -0.000004 14.231300 5.585750 -10.468300 -2.192480 -6.469440 -0.000000 175.356000 1.085900 -54.144000 39.081100 -0.000007 -0.000012 0.108717 -0.036411 71.480500 40.985400 -0.000006 -0.000013 -5.018650 -7.225900 -58.506200 11.754300 -0.000000 0.000003 0.002174 0.054044 -14.384700 -2.192510 6.469440 -0.000001 175.158000 5.817600 174.818000 -39.081100 -0.002282 -0.040193 0.022101 -0.044897 22.704100 -40.985400 0.000008 0.000006 -3.203860 1.647140 -55.345400 -11.754300 -0.000006 -0.000006 -0.048812 -0.293499 -28.657800
0.000000 0.000000 0.000000 0.000000 0.000000 -0.000000 -1.106640 94.897400 29.430600 -91.828400 4.092160 162.671000 15.735700 0.000005 -0.000001 130.480000 85.261700 -130.725000 8.984550 -0.406207 -0.000000 -0.542867 6.168460 -0.460635 16.377300 -0.000001 -0.000001 -8.728820 0.788615 -1.760570 6.456720 -0.000001 -0.000000 0.167224 -3.214460 -3.332960 12.994200 -0.242716 4.980390 -91.050000 2.897320 -70.068600 5.348090 -0.000007 -0.000001 -47.897500 -13.628300 17.518200 24.328600 0.000019 0.000005 1.511450 46.993200 -2.066460 22.291600 -0.000001 0.000005 8.671970 3.346380 32.849400 12.994500 -0.242716 -4.980390 89.998000 0.009489 -78.108600 -5.348130 -0.000001 -0.000004 -65.378200 6.274770 -7.373710 -24.328900 0.000322 -0.000009 -6.328880 -1.627240 -75.637500 -22.291500 -0.000108 -0.000004 17.071500 5.677370 -18.211600 -2.192480 -6.469440 -0.000000 178.462000 3.547530 -51.459500 39.081100 -0.000007 -0.000012 0.080323 -0.063922 51.485400 40.985400 -0.000006 -0.000013 -5.188650 -3.258730 -62.121600 11.754300 -0.000000 0.000003 0.002372 0.065769 -13.909200 -2.192510 6.469440 -0.000001 175.574000 8.653350 -179.635000 -39.081100 -0.002282 -0.040193 0.031878 -0.099298 16.040600 -40.985400 0.000008 0.000006 1.300220 0.452070 -37.243700 -11.754300 -0.000006 -0.000006 -0.008128 -0.089078 -20.200500
0.000000 0.000000 0.000000 0.000000 0.000000 -0.000000 -0.935599 95.552400 18.997700 -89.614900 2.778530 165.140000 15.735700 0.000005 -0.000001 130.514000 84.628500 -130.008000 8.984550 -0.406207 -0.000000 0.377452 6.944340 0.988981 16.377300 -0.000001 -0.000001 -8.268340 0.380118 -2.148500 6.456720 -0.000001 -0.000000 0.960528 -4.615910 -2.663850 12.994200 -0.242716 4.980390 -91.055700 2.831250 -69.540800 5.348090 -0.000007 -0.000001 -45.685300 -12.771800 16.767000 24.328600 0.000019 0.000005 1.807420 43.137300 -2.642580 22.291600 -0.000001 0.000005 18.173300 3.306190 33.397300 12.994500 -0.242716 -4.980390 89.933000 0.324364 -78.323200 -5.348130 -0.000001 -0.000004 -65.469400 6.794710 -5.789990 -24.328900 0.000322 -0.000009 -3.156080 -0.566526 -79.839000 -22.291500 -0.000108 -0.000004 23.532200 5.683520 -21.439000 -2.192480 -6.469440 -0.000000 -176.441000 5.207560 -43.863800 39.081100 -0.000007 -0.000012 0.029735 -0.048208 31.665500 40.985400 -0.000006 -0.000013 -6.036600 1.183590 -66.819000 11.754300 -0.000000 0.000003 0.002294 0.060416 -14.126300 -2.192510 6.469440 -0.000001 177.813000 9.141010 -174.876000 -39.081100 -0.002282 -0.040193 0.069132 -0.191948 18.924000 -40.985400 0.000008 0.000006 1.706580 -4.006960 -26.221600 -11.754300 -0.000006 -0.000006 -0.000804 0.180252 -9.261610
0.000000 0.000000 0.000000 0.000000 0.000000 -0.000000 -1.050910 94.973400 8.553620 -88.439500 3.446510 166.658000 15.735700 0.000005 -0.000001 132.700000 84.099600 -132.014000 8.984550 -0.406207 -0.000000 0.871217 7.958490 1.310410 16.377300 -0.000001 -0.000001 -7.890140 -0.039009 -1.437400 6.456720 -0.000001 -0.000000 1.460740 -4.977950 -2.445010 12.994200 -0.242716 4.980390 -90.971100 2.609000 -69.576100 5.348090 -0.000007 -0.000001 -46.007400 -12.754400 14.409400 24.328600 0.000019 0.000005 1.485680 40.124400 -2.304440 22.291600 -0.000001 0.000005 22.005500 3.465300 31.387900 12.994500 -0.242716 -4.980390 90.017500 -0.087403 -78.672400 -5.348130 -0.000001 -0.000004 -67.067800 7.608310 -3.632690 -24.328900 0.000322 -0.000009 -0.269924 -0.063140 -76.485700 -22.291500 -0.000108 -0.000004 28.052100 5.679730 -22.715900 -2.192480 -6.469440 -0.000000 -173.011000 6.218890 -37.095100 39.081100 -0.000007 -0.000012 -0.001769 0.006092 16.190900 40.985400 -0.000006 -0.000013 -5.985630 3.191370 -72.116500 11.754300 -0.000000 0.000003 0.002317 0.061887 -14.066600 -2.192510 6.469440 -0.000001 179.633000 5.230820 -174.368000 -39.081100 -0.002282 -0.040193 0.112339 -0.185871 30.397400 -40.985400 0.000008 0.000006 0.115950 -6.828730 -28.901800 -11.754300 -0.000006 -0.000006 -0.000213 0.171185 -9.629970
